<?xml version="1.0" encoding="UTF-8"?>
<svg xmlns="http://www.w3.org/2000/svg" width="200mm" height="200mm" viewBox="0 0 200 200">
<title>12 · Chevron lines</title>
<path fill="#000000" fill-rule="evenodd" d="M67.0834 40.5199C67.4579 40.4223 67.8633 40.4753 68.2 40.6657C68.3135 40.7299 68.4157 40.8115 68.52 40.8892C68.6267 40.9685 68.7333 41.0479 68.84 41.1273C69.2489 41.4315 69.6578 41.7358 70.0667 42.04C72.468 43.8267 74.8693 45.6133 77.2706 47.4C84.167 52.5313 91.0635 57.6626 97.96 62.7939C99.9867 64.3019 102.0133 65.8098 104.04 67.3177C104.6145 67.7452 105.1889 68.1726 105.7634 68.6C105.9089 68.7083 106.0545 68.8166 106.2 68.9249C106.348 69.035 106.4986 69.1547 106.68 69.2042C106.8648 69.2547 107.0496 69.25 107.24 69.25C107.4 69.25 107.56 69.25 107.72 69.25C108.3067 69.25 108.8933 69.25 109.48 69.25C111.4 69.25 113.32 69.25 115.24 69.25C121.5333 69.25 127.8267 69.25 134.12 69.25C135.56 69.25 137 69.25 138.44 69.25C138.84 69.25 139.24 69.25 139.64 69.25C139.9456 69.25 140.2273 69.2348 140.52 69.343C140.7 69.4096 140.8668 69.5108 141.0088 69.6399C141.134 69.7537 141.2397 69.8887 141.32 70.0376C141.7515 70.8372 141.3702 71.8428 140.52 72.157C140.2487 72.2573 140.004 72.25 139.72 72.25C139.5067 72.25 139.2933 72.25 139.08 72.25C138.1733 72.25 137.2667 72.25 136.36 72.25C133.2133 72.25 130.0667 72.25 126.92 72.25C122.1467 72.25 117.3733 72.25 112.6 72.25C111.1867 72.25 109.7733 72.25 108.36 72.25C108.04 72.25 107.72 72.25 107.4 72.25C107.1328 72.25 106.8667 72.2505 106.6 72.2323C106.5193 72.2268 106.4398 72.2129 106.36 72.2C106.1433 72.1651 105.9291 72.118 105.72 72.0502C105.4541 71.9641 105.1601 71.8314 104.9199 71.6857C104.6607 71.5285 104.4212 71.3407 104.1784 71.16C103.8922 70.9471 103.6061 70.7342 103.32 70.5213C102.04 69.5689 100.76 68.6166 99.48 67.6642C95.1333 64.4301 90.7867 61.1959 86.44 57.9618C80.8933 53.8348 75.3467 49.7078 69.8 45.5809C69 44.9856 68.2 44.3904 67.4 43.7951C67.1871 43.6368 66.9743 43.4784 66.7614 43.32C66.5417 43.1565 66.3508 43.0173 66.1997 42.7822C65.6481 41.9236 66.1016 40.7758 67.0834 40.5199Z"/>
<path fill="#000000" fill-rule="evenodd" d="M63.6087 44.7597C63.717 44.6829 63.8354 44.6205 63.96 44.5748C64.3496 44.4317 64.7906 44.4584 65.16 44.6474C65.275 44.7061 65.3768 44.7827 65.48 44.8594C65.5788 44.933 65.6776 45.0065 65.7764 45.08C66.0776 45.3041 66.3788 45.5282 66.68 45.7523C69.1333 47.5777 71.5867 49.4031 74.04 51.2285C81.1333 56.5063 88.2267 61.784 95.32 67.0618C97.5067 68.6888 99.6933 70.3158 101.88 71.9428C102.5467 72.4388 103.2133 72.9348 103.88 73.4309C104.0933 73.5896 104.3067 73.7483 104.52 73.9071C104.6457 74.0006 104.7725 74.1088 104.92 74.1666C105.1379 74.2519 105.3295 74.25 105.56 74.25C105.6667 74.25 105.7733 74.25 105.88 74.25C106.3867 74.25 106.8933 74.25 107.4 74.25C109.24 74.25 111.08 74.25 112.92 74.25C119.2133 74.25 125.5067 74.25 131.8 74.25C133.1867 74.25 134.5733 74.25 135.96 74.25C136.36 74.25 136.76 74.25 137.16 74.25C137.4542 74.25 137.7548 74.2278 138.04 74.3136C138.9326 74.5823 139.3708 75.6078 138.9396 76.44C138.8545 76.6043 138.7388 76.7524 138.6002 76.8748C138.0999 77.3161 137.6141 77.25 137 77.25C136.2267 77.25 135.4533 77.25 134.68 77.25C131.1867 77.25 127.6933 77.25 124.2 77.25C119.64 77.25 115.08 77.25 110.52 77.25C109.2133 77.25 107.9067 77.25 106.6 77.25C106.3067 77.25 106.0133 77.25 105.72 77.25C105.4531 77.25 105.1862 77.253 104.92 77.2305C104.8394 77.2237 104.7598 77.209 104.68 77.1961C104.4636 77.1612 104.2478 77.1135 104.04 77.0423C103.777 76.9522 103.4916 76.8261 103.2549 76.6802C102.9989 76.5225 102.7609 76.3375 102.52 76.1583C102.1733 75.9003 101.8267 75.6424 101.48 75.3845C100.04 74.313 98.6 73.2416 97.16 72.1702C92.36 68.5988 87.56 65.0273 82.76 61.4559C77.4665 57.5173 72.173 53.5786 66.8794 49.64C66.093 49.0548 65.3065 48.4696 64.52 47.8845C64.28 47.7059 64.04 47.5273 63.8 47.3488C63.6236 47.2175 63.4446 47.0934 63.3059 46.9201C62.77 46.2504 62.9105 45.2554 63.6087 44.7597Z"/>
<path fill="#000000" fill-rule="evenodd" d="M60.94 48.5997C61.3469 48.4385 61.8141 48.4652 62.2 48.6717C62.3145 48.733 62.4162 48.812 62.52 48.8892C62.6413 48.9795 62.7626 49.0697 62.8839 49.16C63.2781 49.4533 63.6724 49.7467 64.0666 50.04C66.6177 51.9382 69.1689 53.8363 71.72 55.7345C78.7867 60.9924 85.8533 66.2504 92.92 71.5083C95.2133 73.2146 97.5067 74.921 99.8 76.6273C100.5404 77.1782 101.2808 77.7291 102.0212 78.28C102.2674 78.4632 102.5137 78.6465 102.76 78.8297C102.9157 78.9456 103.0673 79.0669 103.24 79.1568C103.4755 79.2793 103.7842 79.25 104.04 79.25C104.4933 79.25 104.9467 79.25 105.4 79.25C107.1067 79.25 108.8133 79.25 110.52 79.25C116.68 79.25 122.84 79.25 129 79.25C130.28 79.25 131.56 79.25 132.84 79.25C133.16 79.25 133.48 79.25 133.8 79.25C134.1112 79.25 134.383 79.2362 134.68 79.3513C135.6361 79.7218 135.9493 80.9334 135.2821 81.7201C135.159 81.8653 135.0083 81.9865 134.8401 82.0756C134.5071 82.2519 134.2441 82.25 133.88 82.25C133.72 82.25 133.56 82.25 133.4 82.25C132.5733 82.25 131.7467 82.25 130.92 82.25C127.7733 82.25 124.6267 82.25 121.48 82.25C117.24 82.25 113 82.25 108.76 82.25C107.5067 82.25 106.2533 82.25 105 82.25C104.68 82.25 104.36 82.25 104.04 82.25C103.7736 82.25 103.5055 82.255 103.24 82.2283C102.9687 82.201 102.7007 82.1383 102.44 82.0602C102.3582 82.0358 102.2794 82.0028 102.2 81.9718C102.0069 81.8962 101.8201 81.8078 101.64 81.7047C101.3861 81.5592 101.1541 81.3742 100.92 81.2C100.5733 80.9421 100.2267 80.6841 99.88 80.4262C98.4133 79.3349 96.9467 78.2436 95.48 77.1524C90.44 73.4024 85.4 69.6524 80.36 65.9024C74.8667 61.8151 69.3733 57.7278 63.88 53.6405C63.08 53.0452 62.28 52.45 61.48 51.8548C61.2667 51.696 61.0533 51.5373 60.84 51.3786C60.6203 51.2151 60.4105 51.0699 60.2535 50.8401C59.7128 50.048 60.0534 48.9508 60.94 48.5997Z"/>
<path fill="#000000" fill-rule="evenodd" d="M57.8061 52.6799C58.2409 52.4498 58.7739 52.4497 59.2088 52.6796C59.3347 52.7463 59.4461 52.8343 59.56 52.9191C59.6667 52.9984 59.7733 53.0778 59.88 53.1572C60.2533 53.4349 60.6267 53.7127 61 53.9905C63.6133 55.9349 66.2267 57.8794 68.84 59.8238C76.2 65.3 83.56 70.7762 90.92 76.2524C93.2933 78.0183 95.6667 79.7841 98.04 81.55C98.8133 82.1254 99.5867 82.7008 100.36 83.2762C100.6 83.4548 100.84 83.6333 101.08 83.8119C101.2123 83.9104 101.37 84.0455 101.5139 84.1203C101.8291 84.2844 102.0968 84.25 102.44 84.25C102.8667 84.25 103.2933 84.25 103.72 84.25C105.3733 84.25 107.0267 84.25 108.68 84.25C114.7067 84.25 120.7333 84.25 126.76 84.25C127.9867 84.25 129.2133 84.25 130.44 84.25C130.76 84.25 131.08 84.25 131.4 84.25C131.7242 84.25 131.9752 84.2409 132.28 84.372C133.2215 84.7768 133.4907 85.998 132.7964 86.7602C132.6727 86.8959 132.5241 87.0085 132.36 87.0908C132.0521 87.2452 131.8125 87.25 131.48 87.25C131.32 87.25 131.16 87.25 131 87.25C130.1733 87.25 129.3467 87.25 128.52 87.25C125.4533 87.25 122.3867 87.25 119.32 87.25C115.16 87.25 111 87.25 106.84 87.25C105.64 87.25 104.44 87.25 103.24 87.25C102.92 87.25 102.6 87.25 102.28 87.25C102.0408 87.25 101.7981 87.2535 101.56 87.2257C101.2891 87.194 101.0199 87.1354 100.76 87.0529C100.4955 86.9689 100.1792 86.8259 99.9428 86.6802C99.698 86.5294 99.4703 86.3535 99.24 86.1822C98.84 85.8846 98.44 85.5869 98.04 85.2893C96.5126 84.1529 94.9852 83.0164 93.4579 81.88C88.2252 77.9867 82.9926 74.0933 77.76 70.2C72.2 66.0631 66.64 61.9262 61.08 57.7893C60.2533 57.1742 59.4267 56.5592 58.6 55.9441C58.3563 55.7627 58.1125 55.5814 57.8688 55.4C57.6727 55.2541 57.4709 55.1176 57.32 54.9219C56.7544 54.1887 56.99 53.1117 57.8061 52.6799Z"/>
<path fill="#000000" fill-rule="evenodd" d="M55.0326 56.5996C55.4137 56.4677 55.8401 56.4966 56.2 56.6786C56.3304 56.7446 56.4445 56.8332 56.5612 56.92C56.6808 57.009 56.8004 57.098 56.92 57.187C57.3733 57.5243 57.8267 57.8616 58.28 58.1989C61.0267 60.2425 63.7733 62.2862 66.52 64.3298C74.0241 69.9132 81.5282 75.4966 89.0322 81.08C91.4482 82.8776 93.8641 84.6751 96.28 86.4727C97.08 87.0679 97.88 87.6631 98.68 88.2584C98.92 88.437 99.16 88.6155 99.4 88.7941C99.5553 88.9096 99.7077 89.0422 99.88 89.1319C100.1594 89.2773 100.4552 89.25 100.76 89.25C101.16 89.25 101.56 89.25 101.96 89.25C103.56 89.25 105.16 89.25 106.76 89.25C112.5467 89.25 118.3333 89.25 124.12 89.25C125.1867 89.25 126.2533 89.25 127.32 89.25C127.56 89.25 127.8 89.25 128.04 89.25C128.4 89.25 128.6675 89.2407 129 89.4048C129.797 89.7979 130.0806 90.8093 129.5989 91.5601C129.4994 91.7151 129.3713 91.8514 129.2227 91.9602C129.0716 92.0709 128.8998 92.1527 128.7187 92.2005C128.4463 92.2723 128.1589 92.25 127.88 92.25C127.4 92.25 126.92 92.25 126.44 92.25C124.92 92.25 123.4 92.25 121.88 92.25C116.92 92.25 111.96 92.25 107 92.25C105.2933 92.25 103.5867 92.25 101.88 92.25C101.5333 92.25 101.1867 92.25 100.84 92.25C100.5464 92.25 100.2529 92.2543 99.96 92.2312C99.8794 92.2248 99.7998 92.2103 99.72 92.1975C99.3626 92.1398 99.0094 92.0399 98.68 91.8875C98.2218 91.6755 97.848 91.3787 97.4466 91.08C96.9448 90.7067 96.4431 90.3333 95.9413 89.96C94.2942 88.7345 92.6471 87.5089 91 86.2834C85.7658 82.3889 80.5317 78.4945 75.2975 74.6C69.5717 70.3397 63.8458 66.0794 58.12 61.8191C57.2667 61.1842 56.4133 60.5493 55.56 59.9144C55.3296 59.7429 55.0991 59.5715 54.8687 59.4C54.6469 59.235 54.437 59.0893 54.2798 58.8565C53.7306 58.0432 54.1075 56.9195 55.0326 56.5996Z"/>
<path fill="#000000" fill-rule="evenodd" d="M51.7382 60.7598C52.1728 60.4857 52.7319 60.4548 53.1942 60.6796C53.3269 60.7441 53.4423 60.8315 53.56 60.9191C53.6933 61.0184 53.8267 61.1176 53.96 61.2168C54.3288 61.4912 54.6976 61.7656 55.0664 62.04C57.8176 64.087 60.5688 66.134 63.32 68.1811C71.0533 73.935 78.7867 79.689 86.52 85.443C89.08 87.3477 91.64 89.2525 94.2 91.1572C95.0614 91.7982 95.9228 92.4391 96.7842 93.08C97.0695 93.2923 97.3547 93.5045 97.64 93.7168C97.7847 93.8244 97.9264 93.9404 98.0766 94.0402C98.1414 94.0832 98.2069 94.1318 98.2798 94.1603C98.5627 94.2711 98.7835 94.25 99.08 94.25C99.4 94.25 99.72 94.25 100.04 94.25C101.5333 94.25 103.0267 94.25 104.52 94.25C110.2533 94.25 115.9867 94.25 121.72 94.25C122.7867 94.25 123.8533 94.25 124.92 94.25C125.1333 94.25 125.3467 94.25 125.56 94.25C125.9252 94.25 126.1858 94.2438 126.52 94.4151C127.4058 94.8691 127.6108 96.0639 126.9202 96.7864C126.7842 96.9287 126.6202 97.0437 126.44 97.1229C126.1366 97.2565 125.8828 97.25 125.56 97.25C125.4 97.25 125.24 97.25 125.08 97.25C124.3067 97.25 123.5333 97.25 122.76 97.25C119.9867 97.25 117.2133 97.25 114.44 97.25C110.68 97.25 106.92 97.25 103.16 97.25C102.0667 97.25 100.9733 97.25 99.88 97.25C99.5867 97.25 99.2933 97.25 99 97.25C98.7601 97.25 98.5192 97.2518 98.28 97.2291C98.008 97.2032 97.7415 97.1393 97.48 97.0627C97.3981 97.0387 97.3193 97.006 97.24 96.975C97.0306 96.893 96.8227 96.7985 96.6308 96.6803C96.3945 96.5348 96.1742 96.3655 95.9518 96.2C95.5217 95.88 95.0917 95.56 94.6616 95.24C92.9771 93.9867 91.2926 92.7333 89.6081 91.48C83.8588 87.2022 78.1094 82.9244 72.36 78.6466C66.6764 74.4177 60.9928 70.1889 55.3093 65.96C54.4328 65.3079 53.5564 64.6558 52.68 64.0037C52.4133 63.8053 52.1467 63.6069 51.88 63.4085C51.6814 63.2607 51.4808 63.1216 51.3319 62.9201C50.816 62.2219 51.0058 61.2216 51.7382 60.7598Z"/>
<path fill="#000000" fill-rule="evenodd" d="M97.5426 102.92C97.7854 102.8537 98.0286 102.7948 98.28 102.7709C98.6777 102.7331 99.0811 102.75 99.48 102.75C100.12 102.75 100.76 102.75 101.4 102.75C103.7467 102.75 106.0933 102.75 108.44 102.75C116.12 102.75 123.8 102.75 131.48 102.75C134.12 102.75 136.76 102.75 139.4 102.75C139.5333 102.75 139.6667 102.75 139.8 102.75C140.0191 102.75 140.2285 102.7511 140.44 102.816C141.1528 103.0347 141.6006 103.754 141.4805 104.4912C141.3849 105.078 140.937 105.5635 140.36 105.7062C140.0858 105.774 139.7631 105.75 139.48 105.75C138.0667 105.75 136.6533 105.75 135.24 105.75C128.52 105.75 121.8 105.75 115.08 105.75C111.2667 105.75 107.4533 105.75 103.64 105.75C102.4667 105.75 101.2933 105.75 100.12 105.75C99.7733 105.75 99.4267 105.75 99.08 105.75C98.8469 105.75 98.6142 105.7372 98.3873 105.7992C98.1675 105.8592 97.9069 106.0847 97.72 106.2237C97.3364 106.5091 96.9528 106.7946 96.5691 107.08C95.2194 108.0843 93.8697 109.0885 92.52 110.0928C87.8844 113.5418 83.2489 116.9909 78.6133 120.44C71.8037 125.5067 64.9941 130.5733 58.1845 135.64C57.0735 136.4667 55.9624 137.2933 54.8514 138.12C54.5009 138.3808 54.1505 138.6415 53.8 138.9023C53.5945 139.0552 53.3947 139.2296 53.16 139.3365C52.3488 139.706 51.3902 139.2818 51.1133 138.44C51.0708 138.3108 51.046 138.1759 51.0398 138.04C51.0209 137.6262 51.1782 137.2152 51.4685 136.9199C51.5688 136.8179 51.6856 136.7361 51.8 136.6511C51.9304 136.554 52.0608 136.457 52.1912 136.36C52.5408 136.0999 52.8904 135.8398 53.24 135.5796C55.9368 133.5731 58.6336 131.5665 61.3304 129.56C69.7169 123.32 78.1035 117.08 86.4901 110.84C88.9267 109.027 91.3634 107.214 93.8 105.4011C94.4456 104.9207 95.0912 104.4404 95.7368 103.96C96.0304 103.7415 96.3188 103.5118 96.6308 103.3197C96.6983 103.2781 96.7697 103.243 96.84 103.2064C97.0637 103.09 97.2988 102.9865 97.5426 102.92Z"/>
<path fill="#000000" fill-rule="evenodd" d="M99.7357 107.8C100.2 107.7251 100.6901 107.75 101.16 107.75C101.8533 107.75 102.5467 107.75 103.24 107.75C105.4267 107.75 107.6133 107.75 109.8 107.75C116.6 107.75 123.4 107.75 130.2 107.75C131.88 107.75 133.56 107.75 135.24 107.75C135.8 107.75 136.36 107.75 136.92 107.75C137.1067 107.75 137.2933 107.75 137.48 107.75C137.5865 107.75 137.6938 107.7464 137.8 107.7559C138.6915 107.8351 139.32 108.684 139.1349 109.56C139.0003 110.1975 138.4494 110.6864 137.8 110.7441C137.5964 110.7622 137.3664 110.75 137.16 110.75C136.7867 110.75 136.4133 110.75 136.04 110.75C134.8667 110.75 133.6933 110.75 132.52 110.75C125.5067 110.75 118.4933 110.75 111.48 110.75C108.8933 110.75 106.3067 110.75 103.72 110.75C102.92 110.75 102.12 110.75 101.32 110.75C101.08 110.75 100.84 110.75 100.6 110.75C100.3946 110.75 100.2394 110.7456 100.04 110.8001C99.8203 110.8601 99.5408 111.1011 99.3542 111.24C98.9428 111.5461 98.5314 111.8522 98.12 112.1583C96.6533 113.2495 95.1867 114.3408 93.72 115.4321C88.7168 119.1547 83.7136 122.8774 78.7103 126.6C72.6175 131.1333 66.5247 135.6667 60.4319 140.2C59.5013 140.8924 58.5706 141.5849 57.64 142.2773C57.3467 142.4956 57.0533 142.7138 56.76 142.9321C56.5552 143.0844 56.356 143.2565 56.12 143.3589C55.2792 143.7237 54.3011 143.2452 54.0711 142.36C53.9415 141.8609 54.0833 141.3173 54.4398 140.9451C54.5364 140.8444 54.6485 140.7639 54.76 140.6809C54.8667 140.6015 54.9733 140.5221 55.08 140.4428C55.4396 140.1752 55.7993 139.9076 56.1589 139.64C58.786 137.6854 61.413 135.7307 64.04 133.7761C72.4133 127.5459 80.7867 121.3158 89.16 115.0856C91.4204 113.4038 93.6809 111.7219 95.9413 110.04C96.4072 109.6933 96.8732 109.3467 97.3391 109C97.6485 108.7697 97.9523 108.5282 98.2799 108.324C98.3535 108.2781 98.4316 108.24 98.5084 108.2C98.9025 107.995 99.2975 107.8707 99.7357 107.8Z"/>
<path fill="#000000" fill-rule="evenodd" d="M100.8546 112.92C101.0925 112.855 101.314 112.803 101.56 112.7743C101.6396 112.765 101.72 112.7628 101.8 112.7585C102.0928 112.7429 102.3868 112.75 102.68 112.75C103.16 112.75 103.64 112.75 104.12 112.75C105.96 112.75 107.8 112.75 109.64 112.75C115.6933 112.75 121.7467 112.75 127.8 112.75C129.24 112.75 130.68 112.75 132.12 112.75C132.5733 112.75 133.0267 112.75 133.48 112.75C133.6133 112.75 133.7467 112.75 133.88 112.75C134.0136 112.75 134.1474 112.7464 134.28 112.7659C135.1487 112.8932 135.7256 113.748 135.5211 114.6C135.3864 115.1612 134.9268 115.6051 134.3609 115.72C134.2016 115.7524 134.0417 115.75 133.88 115.75C133.7467 115.75 133.6133 115.75 133.48 115.75C131.7467 115.75 130.0133 115.75 128.28 115.75C120.6 115.75 112.92 115.75 105.24 115.75C104.4667 115.75 103.6933 115.75 102.92 115.75C102.7333 115.75 102.5467 115.75 102.36 115.75C102.1353 115.75 101.9193 115.7391 101.7002 115.7989C101.527 115.8462 101.3812 115.964 101.24 116.069C101.1455 116.1394 101.051 116.2097 100.9565 116.28C100.491 116.6263 100.0255 116.9727 99.56 117.319C97.96 118.5095 96.36 119.7 94.76 120.8905C89.4424 124.847 84.1249 128.8035 78.8073 132.76C73.4849 136.7202 68.1624 140.6803 62.84 144.6405C62.0133 145.2555 61.1867 145.8706 60.36 146.4857C60.12 146.6643 59.88 146.8428 59.64 147.0214C59.4609 147.1547 59.2882 147.2949 59.08 147.3808C58.3622 147.6771 57.5283 147.3701 57.1736 146.68C57.0965 146.53 57.045 146.3671 57.0218 146.2C56.9611 145.7615 57.1016 145.3097 57.3999 144.9829C57.4954 144.8783 57.6068 144.7949 57.72 144.7107C57.8267 144.6313 57.9333 144.5519 58.04 144.4726C58.3333 144.2543 58.6267 144.0361 58.92 143.8178C61.48 141.9131 64.04 140.0083 66.6 138.1035C74.52 132.2107 82.44 126.3178 90.36 120.425C92.6533 118.7186 94.9467 117.0123 97.24 115.3059C97.8533 114.8496 98.4667 114.3932 99.08 113.9369C99.3633 113.7261 99.6417 113.5053 99.9428 113.3198C100.2017 113.1602 100.5619 112.9999 100.8546 112.92Z"/>
<path fill="#000000" fill-rule="evenodd" d="M102.17 118.04C102.5132 117.9056 102.8722 117.8087 103.24 117.7717C103.5584 117.7397 103.8806 117.75 104.2 117.75C104.5467 117.75 104.8933 117.75 105.24 117.75C106.84 117.75 108.44 117.75 110.04 117.75C115.72 117.75 121.4 117.75 127.08 117.75C128.2267 117.75 129.3733 117.75 130.52 117.75C130.84 117.75 131.16 117.75 131.48 117.75C131.7548 117.75 132.016 117.7406 132.28 117.8312C133.1161 118.1179 133.527 119.0754 133.1546 119.88C133.0779 120.0457 132.9709 120.1969 132.8402 120.3243C132.6026 120.5558 132.2897 120.7038 131.96 120.7407C131.7753 120.7614 131.5856 120.75 131.4 120.75C131.1067 120.75 130.8133 120.75 130.52 120.75C128.7067 120.75 126.8933 120.75 125.08 120.75C120.2267 120.75 115.3733 120.75 110.52 120.75C108.9733 120.75 107.4267 120.75 105.88 120.75C105.3733 120.75 104.8667 120.75 104.36 120.75C104.2 120.75 104.04 120.75 103.88 120.75C103.7461 120.75 103.6125 120.7477 103.48 120.7691C103.1734 120.8185 102.9217 121.0499 102.68 121.2298C102.2812 121.5265 101.8824 121.8233 101.4836 122.12C99.909 123.2915 98.3345 124.463 96.76 125.6346C91.1307 129.823 85.5014 134.0115 79.872 138.2C75.0336 141.8 70.1952 145.4 65.3568 149C64.64 149.5333 63.9232 150.0667 63.2064 150.6C63.0043 150.7504 62.8021 150.9008 62.6 151.0512C62.423 151.1829 62.2524 151.318 62.0452 151.4001C61.2982 151.6963 60.4431 151.344 60.1198 150.6108C60.0622 150.4802 60.0235 150.3415 60.005 150.2C59.9446 149.738 60.1079 149.2638 60.4399 148.9369C60.5141 148.8638 60.5966 148.8025 60.68 148.7405C60.7867 148.6611 60.8933 148.5818 61 148.5024C61.2788 148.2949 61.5577 148.0875 61.8365 147.88C64.331 146.024 66.8255 144.1679 69.32 142.3119C76.7867 136.7564 84.2533 131.2008 91.72 125.6452C94.0133 123.9389 96.3067 122.2325 98.6 120.5262C99.2667 120.0302 99.9333 119.5341 100.6 119.0381C100.76 118.9191 100.92 118.8 101.08 118.681C101.2612 118.5462 101.4436 118.4078 101.64 118.2953C101.8103 118.1978 101.9873 118.1115 102.17 118.04Z"/>
<path fill="#000000" fill-rule="evenodd" d="M104.4706 122.8395C104.8918 122.7498 105.2927 122.75 105.72 122.75C106.12 122.75 106.52 122.75 106.92 122.75C108.3067 122.75 109.6933 122.75 111.08 122.75C115.5067 122.75 119.9333 122.75 124.36 122.75C125.2667 122.75 126.1733 122.75 127.08 122.75C127.32 122.75 127.56 122.75 127.8 122.75C128.0634 122.75 128.2975 122.7484 128.5493 122.8396C129.456 123.1679 129.8243 124.2729 129.288 125.0801C129.0588 125.4251 128.6889 125.6638 128.28 125.7305C128.1472 125.7521 128.014 125.75 127.88 125.75C127.6933 125.75 127.5067 125.75 127.32 125.75C125.9067 125.75 124.4933 125.75 123.08 125.75C118.9467 125.75 114.8133 125.75 110.68 125.75C109.4267 125.75 108.1733 125.75 106.92 125.75C106.52 125.75 106.12 125.75 105.72 125.75C105.5245 125.75 105.2668 125.7294 105.08 125.7805C104.8492 125.8435 104.7074 125.9535 104.52 126.0929C104.4004 126.182 104.2807 126.271 104.1611 126.36C103.6593 126.7333 103.1576 127.1067 102.6558 127.48C100.8772 128.8034 99.0986 130.1267 97.32 131.4501C91.24 135.9739 85.16 140.4977 79.08 145.0215C75.1867 147.9183 71.2933 150.8152 67.4 153.712C66.8947 154.088 66.3893 154.464 65.884 154.84C65.7764 154.92 65.6689 155 65.5614 155.08C65.383 155.2127 65.2107 155.3447 65 155.423C64.2494 155.7023 63.4051 155.3355 63.0949 154.6C63.0307 154.4477 62.9919 154.2849 62.9806 154.12C62.9516 153.6987 63.1061 153.2765 63.3998 152.9733C63.5588 152.8092 63.7907 152.6582 63.9764 152.52C64.2631 152.3067 64.5498 152.0933 64.8366 151.88C67.2377 150.0934 69.6389 148.3069 72.04 146.5203C79.5867 140.9052 87.1333 135.2901 94.68 129.6751C96.7867 128.1076 98.8933 126.5401 101 124.9727C101.4533 124.6354 101.9067 124.2981 102.36 123.9608C102.6539 123.7421 102.9425 123.5122 103.2549 123.3198C103.3275 123.275 103.4044 123.2376 103.48 123.1982C103.7912 123.0363 104.127 122.9127 104.4706 122.8395Z"/>
<path fill="#000000" fill-rule="evenodd" d="M105.6907 127.9596C105.9571 127.8672 106.2406 127.8095 106.52 127.7753C106.758 127.7462 107.0007 127.75 107.24 127.75C107.5067 127.75 107.7733 127.75 108.04 127.75C109.16 127.75 110.28 127.75 111.4 127.75C115.3467 127.75 119.2933 127.75 123.24 127.75C123.9067 127.75 124.5733 127.75 125.24 127.75C125.3733 127.75 125.5067 127.75 125.64 127.75C125.8976 127.75 126.1147 127.7518 126.36 127.8417C127.3261 128.196 127.659 129.4074 127.0001 130.2052C126.7603 130.4955 126.4132 130.6878 126.04 130.7371C125.9074 130.7546 125.7734 130.75 125.64 130.75C125.48 130.75 125.32 130.75 125.16 130.75C123.9867 130.75 122.8133 130.75 121.64 130.75C118.2267 130.75 114.8133 130.75 111.4 130.75C110.36 130.75 109.32 130.75 108.28 130.75C107.96 130.75 107.64 130.75 107.32 130.75C107.1044 130.75 106.8897 130.7385 106.68 130.7958C106.496 130.846 106.3436 130.9683 106.1935 131.08C106.0859 131.16 105.9784 131.24 105.8709 131.32C105.3333 131.72 104.7957 132.12 104.2581 132.52C102.4303 133.88 100.6024 135.24 98.7746 136.6C92.5384 141.24 86.3023 145.88 80.0661 150.52C76.6613 153.0533 73.2565 155.5867 69.8517 158.12C69.5145 158.3709 69.1772 158.6218 68.84 158.8727C68.7333 158.9521 68.6267 159.0315 68.52 159.1108C68.4157 159.1885 68.3135 159.2701 68.2 159.3343C67.8865 159.5116 67.5129 159.5704 67.16 159.4979C67.0207 159.4693 66.8856 159.4208 66.7599 159.3543C66.6104 159.2751 66.4746 159.1706 66.3598 159.0463C66.2166 158.8913 66.1069 158.706 66.0397 158.506C65.9979 158.3813 65.9725 158.2512 65.9645 158.12C65.9395 157.7095 66.0881 157.2991 66.37 156.9999C66.4634 156.9008 66.5712 156.8215 66.68 156.7406C66.7788 156.6671 66.8776 156.5935 66.9765 156.52C67.251 156.3157 67.5255 156.1115 67.8 155.9072C70.12 154.1811 72.44 152.4549 74.76 150.7287C81.8 145.4906 88.84 140.2525 95.88 135.0144C98.001 133.4363 100.122 131.8581 102.243 130.28C102.8153 129.8542 103.3877 129.4283 103.96 129.0025C104.275 128.7681 104.5838 128.5182 104.9199 128.3143C105.161 128.1681 105.4249 128.0518 105.6907 127.9596Z"/>
</svg>
